<?xml version="1.0" encoding="UTF-8"?>
<!-- Generated by Pixelmator Pro 3.7 -->
<svg width="800" height="800" viewBox="0 0 800 800" xmlns="http://www.w3.org/2000/svg">
    <g id="SvgjsG1119">
        <g id="Associer">
            <g id="g1">
                <path id="Trac" fill="#ffffff" stroke="none" d="M 727.846191 280.03894 C 710.301941 243.46759 672.722107 219.826843 632.124084 219.826843 C 628.300659 219.826843 624.507324 220.030029 620.744019 220.436523 C 615.693726 177.001038 583.81897 139.127625 539.209351 128.86145 C 531.36676 127.055054 523.343445 126.144348 515.357788 126.144348 C 505.422821 126.144348 495.540558 127.551819 485.98938 130.321594 C 443.065735 142.770447 413.087616 183.669495 413.087616 229.784424 L 413.087616 237.092651 L 413.087616 317.091919 L 413.087616 484.112671 L 413.087616 544.083923 L 413.087616 570.946045 C 413.087616 625.407837 454.400635 670.995911 507.146423 674.736572 C 509.615082 674.909668 512.121399 675 514.590149 675 C 522.500549 675 530.425903 674.096863 538.148071 672.320618 C 582.735107 662.257629 614.767944 624.542358 620.006409 581.159546 C 623.905212 581.596069 627.841492 581.814331 631.807983 581.814331 C 672.240356 581.814331 709.752502 558.316528 727.387146 521.955933 C 747.377563 480.725769 737.848999 432.127075 707.140808 400.982391 C 737.976929 369.950592 747.701172 321.366974 727.846191 280.03894 Z M 707.45697 512.299438 C 692.938293 542.232422 662.975281 559.678833 631.800476 559.678833 C 620.09668 559.678833 608.227417 557.217712 596.930115 552.039429 C 606.074829 596.701721 577.835388 640.671631 533.173096 650.749573 C 526.956177 652.179626 520.671509 652.864563 514.575073 652.864563 C 512.603149 652.864563 510.64621 652.796814 508.696869 652.653809 C 466.781738 649.680847 435.208008 612.966553 435.208008 570.946045 L 435.208008 544.083923 L 435.208008 484.112671 L 435.208008 317.084412 L 435.208008 237.085083 L 435.208008 229.776917 C 435.208008 194.116272 457.892944 161.503906 492.13855 151.576477 C 499.582275 149.416321 507.37973 148.279846 515.342773 148.279846 C 521.574707 148.279846 527.896973 148.979797 534.234314 150.432434 C 578.828918 160.69104 606.880188 204.796387 597.547302 249.451172 C 608.754333 244.378296 620.525696 241.962341 632.116577 241.962341 C 663.419312 241.962341 693.457581 259.536682 707.893433 289.627686 C 727.733337 330.925629 710.75354 380.374817 670.012573 400.899597 C 710.693359 421.612549 727.424744 471.121948 707.45697 512.299438 Z"/>
                <g id="g2">
                    <path id="path1" fill="#ffffff" stroke="none" d="M 155.982071 388.857208 L 220.792847 388.857208 L 220.792847 457.897858 L 295.802032 457.897858 L 295.802032 443.138336 L 289.291626 443.138336 L 235.552322 443.138336 L 235.552322 382.278992 L 235.552322 374.105255 L 228.334412 374.105255 L 170.741562 374.105255 L 170.741562 332.430939 L 186.170898 332.430939 L 186.170898 326.349518 L 186.170898 285.337585 L 139.07753 285.337585 L 139.07753 332.430939 L 155.982071 332.430939 L 155.982071 388.857208 Z M 153.829483 317.671448 L 153.829483 300.097076 L 171.403885 300.097076 L 171.403885 317.671448 L 153.829483 317.671448 Z"/>
                    <path id="path2" fill="#ffffff" stroke="none" d="M 170.734039 524.853638 L 170.734039 473.319672 L 186.163361 473.319672 L 186.163361 467.569427 L 186.163361 426.226318 L 139.070007 426.226318 L 139.070007 473.319672 L 155.974548 473.319672 L 155.974548 539.605591 L 229.568756 539.605591 L 229.568756 532.229614 L 229.568756 532.229614 L 229.568756 524.853638 L 224.616302 524.853638 L 170.734039 524.853638 Z M 153.829483 458.560181 L 153.829483 440.985779 L 171.403885 440.985779 L 171.403885 458.560181 L 153.829483 458.560181 Z"/>
                    <path id="path3" fill="#ffffff" stroke="none" d="M 323.635071 416.697754 L 316.259094 416.697754 L 316.259094 435.551636 L 316.259094 583.876587 L 295.019257 583.876587 L 295.019257 567.709595 L 264.521881 567.709595 L 247.925903 567.709595 L 247.925903 614.802979 L 295.019257 614.802979 L 295.019257 598.636047 L 331.018585 598.636047 L 331.018585 416.697754 L 323.635071 416.697754 L 323.635071 416.697754 Z M 280.259796 600.043518 L 262.685394 600.043518 L 262.685394 582.469116 L 280.259796 582.469116 L 280.259796 600.043518 Z"/>
                    <path id="path4" fill="#ffffff" stroke="none" d="M 284.44455 250.271545 L 284.44455 234.104675 L 310.546478 234.104675 L 310.546478 302.791565 L 310.546478 312.327637 L 325.305939 312.327637 L 325.305939 219.352661 L 284.44455 219.352661 L 284.44455 203.18573 L 237.358688 203.18573 L 237.358688 250.271545 L 269.918365 250.271545 L 284.44455 250.271545 Z M 269.692596 235.519592 L 252.118179 235.519592 L 252.118179 217.94519 L 269.692596 217.94519 L 269.692596 235.519592 Z"/>
                    <path id="path5" fill="#ffffff" stroke="none" d="M 538.336243 474.681946 L 530.960327 474.681946 L 530.960327 487.153412 L 530.960327 582.830444 L 502.863831 582.830444 L 502.863831 566.663452 L 483.927094 566.663452 L 455.770477 566.663452 L 455.770477 613.756775 L 502.863831 613.756775 L 502.863831 597.589905 L 545.71228 597.589905 L 545.71228 474.681946 L 538.336243 474.681946 L 538.336243 474.681946 Z M 488.111847 598.997314 L 470.537476 598.997314 L 470.537476 581.422913 L 488.111847 581.422913 L 488.111847 598.997314 Z"/>
                    <path id="path6" fill="#ffffff" stroke="none" d="M 644.971863 350.885956 L 644.971863 292.088898 L 520.174744 292.773773 L 481.225128 292.773773 L 481.225128 225.682434 L 511.293488 225.682434 L 511.293488 241.849426 L 533.775208 241.849426 L 558.379333 241.849426 L 558.379333 194.756042 L 511.28598 194.756042 L 511.28598 210.922974 L 466.458099 210.922974 L 466.458099 442.67926 L 455.770477 442.67926 L 455.770477 489.772644 L 502.863831 489.772644 L 502.863831 442.67926 L 481.21759 442.67926 L 481.21759 438.599884 L 481.21759 307.525726 L 566.184387 307.525726 L 566.184387 387.178802 L 552.794678 387.178802 L 552.794678 389.602325 L 552.794678 428.710022 L 594.325989 428.710022 L 594.325989 387.178802 L 580.943848 387.178802 L 580.943848 306.848328 L 590.70575 306.848328 L 630.219849 306.848328 L 630.219849 342.238007 L 630.219849 350.885956 L 616.837769 350.885956 L 616.837769 392.409698 L 658.369019 392.409698 L 658.369019 350.885956 L 644.971863 350.885956 Z M 526.045532 209.515503 L 543.619873 209.515503 L 543.619873 227.089905 L 526.045532 227.089905 L 526.045532 209.515503 Z M 488.111847 457.438721 L 488.111847 475.013123 L 470.537476 475.013123 L 470.537476 457.438721 L 488.111847 457.438721 Z M 579.566467 413.958069 L 567.554199 413.958069 L 567.554199 401.94577 L 579.566467 401.94577 L 579.566467 413.958069 Z M 643.594482 377.650238 L 631.582214 377.650238 L 631.582214 365.637909 L 643.594482 365.637909 L 643.594482 377.650238 Z"/>
                    <path id="path7" fill="#ffffff" stroke="none" d="M 616.8302 468.58548 L 616.8302 474.757233 L 630.212341 474.757233 L 630.212341 516.431519 L 579.340637 516.431519 L 573.560364 516.431519 L 573.560364 523.807495 L 573.560364 523.807495 L 573.560364 531.183472 L 644.964294 531.183472 L 644.964294 474.757233 L 658.346436 474.757233 L 658.346436 433.233459 L 616.822693 433.233459 L 616.822693 468.58548 Z M 631.582214 447.985413 L 643.594482 447.985413 L 643.594482 459.997742 L 631.582214 459.997742 L 631.582214 447.985413 Z"/>
                    <path id="path8" fill="#ffffff" stroke="none" d="M 313.015137 130.291504 C 303.456512 127.506653 293.596771 126.151917 283.661774 126.151917 C 275.683655 126.151917 267.63031 127.055054 259.802734 128.86145 C 215.170532 139.097534 183.333405 177.031128 178.215378 220.459045 C 174.52739 220.007507 170.688873 219.856934 166.850342 219.856934 C 126.282463 219.856934 88.725182 243.490173 71.113152 280.069031 C 51.318432 321.389557 61.02763 369.935547 91.886314 400.944733 C 61.178158 432.104523 51.619492 480.725769 71.640007 521.971008 C 89.252037 558.324097 126.734055 581.806763 167.226669 581.806763 C 171.140457 581.806763 175.129517 581.580994 178.968033 581.129395 C 184.236572 624.557373 216.299515 662.265137 260.931732 672.350708 C 268.608765 674.081787 276.511597 674.984985 284.414429 674.984985 C 286.898163 674.984985 289.381897 674.909668 291.865662 674.759155 C 344.626495 670.995911 385.947052 625.385254 385.947052 570.968628 L 385.947052 229.791931 C 385.947052 183.654419 355.916229 142.785461 313.015137 130.291504 Z M 363.743835 570.968628 C 363.743835 612.966553 332.207764 649.695862 290.285126 652.631226 C 288.328217 652.781738 286.371338 652.856995 284.414429 652.856995 C 278.317963 652.856995 272.070953 652.179626 265.823944 650.749573 C 221.191742 640.664063 192.892059 596.709229 202.074417 552.077026 C 190.784653 557.195068 178.892761 559.678833 167.226669 559.678833 C 135.991653 559.678833 106.036156 542.217285 91.509987 512.261841 C 71.564735 471.091827 88.27359 421.64267 128.992004 400.869507 C 88.198326 380.397369 71.26368 330.948212 91.133659 289.627686 C 105.509293 259.521667 135.54007 241.984863 166.850342 241.984863 C 178.441162 241.984863 190.257797 244.393372 201.47229 249.436157 C 192.13942 204.803894 220.138046 160.698608 264.770233 150.462524 C 271.092499 148.957214 277.414764 148.279846 283.661774 148.279846 C 291.639862 148.279846 299.392181 149.408813 306.843414 151.591492 C 341.08905 161.526489 363.743835 194.116272 363.743835 229.791931 L 363.743835 360.226349 L 307.295013 360.226349 L 307.295013 344.044373 L 260.179077 344.044373 L 260.179077 391.160309 L 307.295013 391.160309 L 307.295013 374.978302 L 363.743835 374.978302 L 363.743835 570.968628 Z M 292.54306 358.796326 L 292.54306 376.408356 L 275.006287 376.408356 L 275.006287 358.796326 L 292.54306 358.796326 Z"/>
                </g>
            </g>
        </g>
    </g>
    <text id="h-my-AI" visibility="hidden" xml:space="preserve" x="278.188232" y="460" font-family="Arial Rounded MT Bold" font-size="119" fill="#ffffff">h my AI!</text>
    <g id="SvgjsG1120">
        <path id="path9" fill="#5b3016" stroke="none" visibility="hidden" d="M 303.366425 377.241058 L 320.524872 377.241058 C 326.994446 377.241058 332.245117 382.49173 332.245117 388.961304 L 332.245117 424.12207 L 329.24472 424.12207 C 328.494629 424.12207 328.025818 423.559479 328.025818 422.903137 L 328.025818 388.586243 C 328.025818 384.460724 324.650391 381.179047 320.524872 381.179047 L 302.335052 381.179047 C 301.39743 381.179047 300.647339 381.929138 300.647339 382.77301 L 300.647339 422.903137 C 300.647339 423.559479 300.178528 424.12207 299.428406 424.12207 L 296.334259 424.12207 L 296.334259 353.706787 L 299.615936 353.706787 C 300.178528 353.706787 300.647339 354.175598 300.647339 354.738159 L 300.647339 379.022522 C 300.741089 377.99115 301.959991 377.241058 303.366425 377.241058 Z M 418.599945 377.147278 C 424.975769 377.147278 430.22644 382.49173 430.22644 388.961304 L 430.22644 424.12207 L 426.944763 424.12207 C 426.382172 424.12207 425.913391 423.653259 425.913391 423.090668 L 425.913391 388.586243 C 425.913391 384.460724 422.631714 381.085297 418.599945 381.085297 L 403.785522 381.085297 C 404.629395 381.460327 405.285736 382.49173 405.285736 383.710632 L 405.285736 424.12207 L 402.097839 424.12207 C 401.535248 424.12207 401.066437 423.653259 401.066437 423.090668 L 401.066437 382.77301 C 401.066437 381.835388 400.316345 381.085297 399.378723 381.085297 L 381.470184 381.085297 C 380.907623 381.085297 380.438812 381.554108 380.438812 382.116669 L 380.438812 423.090668 C 380.438812 423.653259 379.969971 424.12207 379.40741 424.12207 L 376.219513 424.12207 L 376.219513 381.366577 C 376.219513 379.116272 378.094757 377.147278 380.345032 377.147278 L 418.599945 377.147278 Z M 476.919922 377.241058 C 477.482483 377.241058 477.951294 377.616089 477.951294 378.17868 L 477.951294 435.185974 C 477.951294 441.749329 472.794403 447 466.324799 447 L 442.884308 447 L 442.884308 444.093384 C 442.884308 443.530792 443.353119 443.061981 443.82193 443.061981 L 466.324799 443.061981 C 470.450348 443.061981 473.732025 439.780304 473.732025 435.654785 L 473.732025 422.715637 C 473.356964 423.559479 472.419342 424.02829 471.200439 424.02829 L 452.82309 424.12207 C 444.947052 424.12207 441.290344 418.777618 441.290344 412.308044 L 441.290344 377.241058 L 444.478271 377.241058 C 445.040833 377.241058 445.509644 377.616089 445.509644 378.17868 L 445.509644 412.401794 C 445.509644 416.527344 447.291107 420.184052 452.82309 420.184052 L 472.044312 420.184052 C 472.981934 420.184052 473.732025 419.43396 473.732025 418.496338 L 473.732025 377.241058 L 476.919922 377.241058 Z M 543.865967 356.425873 C 544.428528 354.92569 546.116272 353.706787 547.710205 353.706787 L 560.274353 353.706787 L 585.121277 424.12207 L 581.464539 424.12207 C 580.808228 424.12207 580.151855 423.653259 579.964355 423.090668 L 573.213501 403.588165 L 531.958191 403.588165 L 525.207336 423.090668 C 525.019836 423.653259 524.363464 424.12207 523.707153 424.12207 L 520.050415 424.12207 Z M 547.522705 358.769928 L 533.364624 399.556396 L 571.807068 399.556396 L 557.273987 357.832306 L 548.929138 357.832306 C 548.272827 357.832306 547.710205 358.207367 547.522705 358.769928 Z M 592.903564 423.090668 L 592.903564 353.706787 L 596.747803 353.706787 C 597.310303 353.706787 597.779114 354.175598 597.779114 354.738159 L 597.779114 424.12207 L 593.934875 424.12207 C 593.372314 424.12207 592.903564 423.653259 592.903564 423.090668 Z M 612.687317 353.800537 C 613.437378 353.800537 613.906189 354.363129 613.906189 355.01944 L 613.906189 412.026764 L 610.437012 412.026764 C 609.780701 412.026764 609.21814 411.464172 609.21814 410.714081 L 609.21814 353.800537 L 612.687317 353.800537 Z M 612.781067 418.590088 C 613.531128 418.590088 614 419.152679 614 419.809021 L 614 424.12207 L 610.343262 424.12207 C 609.68689 424.12207 609.12439 423.559479 609.12439 422.903137 L 609.12439 418.590088 L 612.781067 418.590088 Z"/>
    </g>
</svg>
